<?xml version="1.0" encoding="UTF-8"?><svg xmlns="http://www.w3.org/2000/svg" viewBox="0 0 833.54 682.87"><defs><style>.d{fill:#3ebeae;}</style></defs><g id="a"/><g id="b"><g id="c"><g><g><path class="d" d="M831.41,346.56l-229.81-173.75c-5.12-3.87-12.28-3.47-16.94,.95l-167.86,159.22L248.93,173.76c-4.65-4.42-11.82-4.82-16.94-.95L2.14,346.56c-4.1,3.1-1.91,9.64,3.23,9.64H29.37c36.79,0,72.67-11.5,102.6-32.9l108.89-77.82,25.38,24.88L40.17,433.17c-2.61,1.88-1.33,5.99,1.88,6.07l18.5,.43c44.26,1.02,87.73-11.81,124.33-36.71l127.87-86.99,104.04,102,107.23-105.13,132.82,89.84c36.67,24.8,80.18,37.52,124.43,36.38l18.5-.48c3.21-.08,4.47-4.2,1.86-6.07l-230.97-165.39,22.06-21.63,108.89,77.82c29.93,21.39,65.81,32.9,102.6,32.9h23.96c5.14,0,7.33-6.54,3.23-9.64Z"/><polygon class="d" points="475.75 81.06 383.77 81.59 328.61 226.84 416.79 307.84 502.26 227.1 458.72 125.41 513.7 125.42 475.75 81.06"/><polygon class="d" points="415.9 516.25 415.82 516.37 415.9 516.54 415.9 516.25"/><polygon class="d" points="415.9 544.17 415.9 543.88 415.82 544 415.9 544.17"/><path class="d" d="M317.91,352.32c-2.31-2.73-6.44-3.47-9.57-1.22l-90.91,65.2c-4.26,3.05-3.44,9.61,1.44,11.52,24.28,9.51,50.94,9.27,74.67-.04h.78l-.1-.28c7.24-2.9,14.2-6.62,20.72-11.2l69.58,65.38c-9.32,4.67-19.84,11.07-28.33,19.31l-1.19,1.15-.09,1.7c-.04,.64-.6,14.93,8.29,28.16,.85-1.32,1.7-2.59,2.64-3.83,10.64-14.61,24.81-26.29,33.39-32.67l3.19,2.99c-.28,.21-.55,.41-.85,.63-4.98,3.83-11.91,9.44-18.8,16.21-2.51,2.47-5.02,5.1-7.4,7.83-.04,.04-.04,.09-.13,.13-2.21,2.59-4.38,5.27-6.38,8.04-1.02,1.4-2,2.85-2.93,4.3-2.51,3.91-4.68,8-6.34,12.17,0,0,6.51,12.08,21.27,23.01,0,0,9.06-25.52,27.86-59.72,.08-.17,.21-.38,.3-.55v.26l-.04,.08v8.76c-18.72,34.96-24.97,54.19-26.88,61.68,0,0-.04,.21-.17,.68-.04,.26-.13,.6-.26,1.02v.09c-.04,.3-.13,.64-.26,1.06-.04,.26-.09,.55-.17,.85v.04c14.34,16.72,27.73,16.72,27.73,16.72,0,0,2.04,.17,4.25,0v-131.18h-.02v-25.38l-95.29-92.86Z"/><path class="d" d="M540.16,427.59c23.72,9.31,50.39,9.55,74.67,.04,4.88-1.91,5.7-8.46,1.44-11.52l-90.91-65.2c-2.68-1.92-6.09-1.65-8.47,.17l-.02-.02-.16,.16c-.3,.24-.57,.52-.83,.81l-95.56,93.16v57.98h.02v98.56c2.21,.17,4.25,0,4.25,0,0,0,13.4,0,27.73-16.72v-.04c-.09-.3-.13-.6-.17-.85-.13-.43-.21-.77-.26-1.06v-.09c-.13-.43-.21-.77-.26-1.02-.13-.47-.17-.68-.17-.68-1.91-7.49-8.17-26.71-26.88-61.68v-8.76l-.04-.08v-.26c.09,.17,.21,.38,.3,.55,18.8,34.2,27.86,59.72,27.86,59.72,14.76-10.93,21.27-23.01,21.27-23.01-1.66-4.17-3.83-8.25-6.34-12.17-.94-1.45-1.91-2.89-2.93-4.3-2-2.76-4.17-5.44-6.38-8.04-.09-.04-.09-.09-.13-.13-2.38-2.72-4.89-5.36-7.4-7.83-6.89-6.76-13.82-12.38-18.8-16.21-.31-.23-.59-.44-.88-.65l3.19-2.99c8.58,6.37,22.77,18.07,33.42,32.69,.94,1.23,1.79,2.51,2.64,3.83,8.89-13.23,8.34-27.52,8.29-28.16l-.09-1.7-1.19-1.15c-8.5-8.25-19.03-14.66-28.37-19.33l69.74-65.55c6.53,4.59,13.5,8.31,20.75,11.22l-.1,.28h.78Z"/></g><g><path class="d" d="M416.75,21.27c143.13,0,264.62,94.39,305.49,224.16l27.65,20.88C715.61,114.08,579.24,0,416.75,0S117.89,114.12,83.65,266.4l27.61-20.89C152.13,115.7,273.62,21.27,416.75,21.27Z"/><path class="d" d="M416.75,661.6c-137.73,0-255.43-87.41-300.56-209.7h-22.54c46.02,134.2,173.46,230.97,323.1,230.97s277.12-96.77,323.15-230.97h-22.54c-45.13,122.29-162.83,209.7-300.6,209.7Z"/></g></g></g></g></svg>